<?xml version="1.0" standalone="no"?>
<!DOCTYPE svg PUBLIC "-//W3C//DTD SVG 20010904//EN"
 "http://www.w3.org/TR/2001/REC-SVG-20010904/DTD/svg10.dtd">
<svg version="1.0" xmlns="http://www.w3.org/2000/svg"
 width="1024.000000pt" height="1024.000000pt" viewBox="0 0 1024.000000 1024.000000"
 preserveAspectRatio="xMidYMid meet">
<metadata>
Created by potrace 1.11, written by Peter Selinger 2001-2013
</metadata>
<g transform="translate(0.000000,1024.000000) scale(0.100000,-0.100000)"
fill="#000000" stroke="none">
<path d="M0 5120 l0 -5120 5120 0 5120 0 0 5120 0 5120 -5120 0 -5120 0 0
-5120z m7325 3170 c143 -31 233 -62 370 -130 362 -180 635 -491 759 -861 58
-172 66 -244 66 -575 l0 -294 -454 0 -454 0 -5 193 c-6 231 -23 311 -98 466
-81 165 -181 251 -350 297 -91 25 -301 25 -384 0 -215 -65 -352 -226 -408
-481 -19 -89 -22 -130 -22 -370 0 -167 5 -291 12 -325 29 -138 95 -250 191
-323 92 -69 235 -135 681 -311 243 -97 488 -199 543 -226 333 -168 537 -393
642 -711 81 -245 100 -415 100 -909 1 -437 -9 -537 -75 -809 -104 -426 -311
-719 -644 -914 -358 -209 -942 -259 -1378 -116 -390 127 -719 415 -891 779
-112 237 -136 361 -143 723 l-5 277 456 0 456 0 0 -166 c0 -188 11 -279 47
-379 75 -208 207 -334 399 -382 104 -26 352 -23 458 6 157 42 260 126 326 263
74 155 96 344 87 773 -8 366 -27 473 -108 595 -81 121 -182 175 -779 420 -424
174 -535 226 -679 321 -107 71 -260 213 -330 307 -160 218 -258 557 -281 972
-45 837 256 1473 835 1762 154 77 314 124 501 148 124 16 446 4 559 -20z
m-2943 -3190 c388 -1741 710 -3182 713 -3203 l7 -37 -455 0 -456 0 -10 53 c-6
28 -65 329 -131 667 -66 338 -122 625 -125 638 l-5 22 -628 0 -627 0 -135
-690 -134 -690 -459 0 c-432 0 -458 1 -453 18 7 22 1426 6378 1426 6386 0 3
172 5 382 4 l382 -3 708 -3165z"/>
<path d="M3275 6408 c-9 -37 -445 -2291 -445 -2300 0 -4 207 -8 461 -8 l461 0
-5 23 c-3 12 -103 524 -221 1137 -119 613 -219 1127 -222 1143 -7 33 -22 35
-29 5z"/>
</g>
</svg>
